<?xml version="1.0" encoding="UTF-8"?>
<svg width="1024px" height="500px" viewBox="0 0 1024 500" version="1.1" xmlns="http://www.w3.org/2000/svg" xmlns:xlink="http://www.w3.org/1999/xlink">
    <!-- Generator: Sketch 49.2 (51160) - http://www.bohemiancoding.com/sketch -->
    <title>Desktop</title>
    <desc>Created with Sketch.</desc>
    <defs>
        <linearGradient x1="6.78928558%" y1="-4.61904041%" x2="72.9961712%" y2="108.449159%" id="linearGradient-1">
            <stop stop-color="#6100FC" offset="0%"></stop>
            <stop stop-color="#F100FF" offset="100%"></stop>
        </linearGradient>
        <path d="M208.183846,197.802489 L170.000253,197.802489 L182.207284,139.599364 L148.418221,139.599364 L136.015878,197.802489 L97.8322838,197.802489 L128.008065,55.0290516 L166.191659,55.0290516 L155.254159,107.958739 L189.238534,107.958739 L200.176034,55.0290516 L238.457284,55.0290516 L208.183846,197.802489 Z M321.172128,171.044677 L277.422128,171.044677 L265.215096,197.802489 L225.566659,197.802489 L298.222909,55.0290516 L347.344003,55.0290516 L359.355721,197.802489 L322.14869,197.802489 L321.172128,171.044677 Z M291.386971,140.575927 L320.000253,140.575927 L318.340096,99.1696766 L318.144784,90.7712391 C318.144784,85.8884022 318.274991,81.6241219 318.535409,77.9782703 C316.972901,83.5772567 314.987244,88.9808485 312.578378,94.1892078 L291.386971,140.575927 Z M424.980721,145.849364 L413.945565,197.802489 L375.761971,197.802489 L405.937753,55.0290516 L443.730721,55.0290516 C460.137053,55.0290516 472.702032,58.2842274 481.426034,64.7946766 C490.150036,71.3051258 494.511971,81.1032049 494.511971,94.1892078 C494.511971,104.345509 492.200797,113.199587 487.578378,120.751708 C482.955959,128.303829 476.087538,134.06549 466.972909,138.036864 L488.847909,188.427489 L492.754159,197.802489 L451.152596,197.802489 L432.109628,145.849364 L424.980721,145.849364 Z M431.133065,116.845458 L436.113534,116.845458 C442.298461,116.845458 447.213776,115.071387 450.859628,111.523192 C454.505479,107.974997 456.328378,103.010854 456.328378,96.6306141 C456.328378,92.5941356 455.205342,89.5179945 452.959237,87.4020985 C450.713132,85.2862025 447.44168,84.2282703 443.144784,84.2282703 L437.969003,84.2282703 L431.133065,116.845458 Z M554.96119,145.849364 L543.926034,197.802489 L505.74244,197.802489 L535.918221,55.0290516 L573.71119,55.0290516 C590.117522,55.0290516 602.682501,58.2842274 611.406503,64.7946766 C620.130505,71.3051258 624.49244,81.1032049 624.49244,94.1892078 C624.49244,104.345509 622.181265,113.199587 617.558846,120.751708 C612.936427,128.303829 606.068007,134.06549 596.953378,138.036864 L618.828378,188.427489 L622.734628,197.802489 L581.133065,197.802489 L562.090096,145.849364 L554.96119,145.849364 Z M561.113534,116.845458 L566.094003,116.845458 C572.278929,116.845458 577.194245,115.071387 580.840096,111.523192 C584.485948,107.974997 586.308846,103.010854 586.308846,96.6306141 C586.308846,92.5941356 585.185811,89.5179945 582.939706,87.4020985 C580.693601,85.2862025 577.422149,84.2282703 573.125253,84.2282703 L567.949471,84.2282703 L561.113534,116.845458 Z M290.312753,215.029052 L270.879159,306.044677 C267.037994,324.339039 259.713848,337.864294 248.906503,346.620848 C238.099157,355.377403 223.418314,359.755614 204.863534,359.755614 C196.139532,359.755614 188.441041,357.965267 181.767831,354.38452 C175.09462,350.803773 169.951443,345.790803 166.338143,339.345458 C162.724844,332.900113 160.918221,325.706175 160.918221,317.763427 C160.918221,313.596739 161.308842,309.397562 162.090096,305.16577 L181.52369,215.029052 L219.707284,215.029052 L200.664315,304.189208 C199.752852,308.616313 199.297128,312.359765 199.297128,315.419677 C199.297128,323.687947 203.23589,327.82202 211.113534,327.82202 C217.233356,327.82202 222.03474,325.722432 225.517831,321.523192 C229.000921,317.323952 231.653889,310.89498 233.476815,302.236083 L252.129159,215.029052 L290.312753,215.029052 Z M410.136971,357.802489 L367.363534,357.802489 L350.371346,301.357177 L340.89869,306.825927 L330.351815,357.802489 L292.168221,357.802489 L322.344003,215.029052 L360.527596,215.029052 L347.344003,275.966552 L351.05494,270.204833 C356.784135,260.89489 361.015864,254.547298 363.750253,251.161864 L392.754159,215.029052 L437.578378,215.029052 L383.769784,280.849364 L410.136971,357.802489 Z M510.722909,357.802489 L425.957284,357.802489 L456.133065,215.029052 L540.89869,215.029052 L534.551034,245.986083 L487.969003,245.986083 L483.379159,268.44702 L526.738534,268.44702 L519.707284,299.404052 L476.347909,299.404052 L470.781503,326.357177 L517.363534,326.357177 L510.722909,357.802489 Z M648.71119,357.802489 L610.527596,357.802489 L622.734628,299.599364 L588.945565,299.599364 L576.543221,357.802489 L538.359628,357.802489 L568.535409,215.029052 L606.719003,215.029052 L595.781503,267.958739 L629.765878,267.958739 L640.703378,215.029052 L678.984628,215.029052 L648.71119,357.802489 Z M761.699471,331.044677 L717.949471,331.044677 L705.74244,357.802489 L666.094003,357.802489 L738.750253,215.029052 L787.871346,215.029052 L799.883065,357.802489 L762.676034,357.802489 L761.699471,331.044677 Z M731.914315,300.575927 L760.527596,300.575927 L758.86744,259.169677 L758.672128,250.771239 C758.672128,245.888402 758.802335,241.624122 759.062753,237.97827 C757.500245,243.577257 755.514588,248.980848 753.105721,254.189208 L731.914315,300.575927 Z M865.508065,305.849364 L854.472909,357.802489 L816.289315,357.802489 L846.465096,215.029052 L884.258065,215.029052 C900.664397,215.029052 913.229376,218.284227 921.953378,224.794677 C930.67738,231.305126 935.039315,241.103205 935.039315,254.189208 C935.039315,264.345509 932.72814,273.199587 928.105721,280.751708 C923.483302,288.303829 916.614882,294.06549 907.500253,298.036864 L929.375253,348.427489 L933.281503,357.802489 L891.67994,357.802489 L872.636971,305.849364 L865.508065,305.849364 Z M871.660409,276.845458 L876.640878,276.845458 C882.825804,276.845458 887.74112,275.071387 891.386971,271.523192 C895.032823,267.974997 896.855721,263.010854 896.855721,256.630614 C896.855721,252.594136 895.732686,249.517994 893.486581,247.402098 C891.240476,245.286202 887.969024,244.22827 883.672128,244.22827 L878.496346,244.22827 L871.660409,276.845458 Z M995.488534,305.849364 L984.453378,357.802489 L946.269784,357.802489 L976.445565,215.029052 L1014.23853,215.029052 C1030.64487,215.029052 1043.20984,218.284227 1051.93385,224.794677 C1060.65785,231.305126 1065.01978,241.103205 1065.01978,254.189208 C1065.01978,264.345509 1062.70861,273.199587 1058.08619,280.751708 C1053.46377,288.303829 1046.59535,294.06549 1037.48072,298.036864 L1059.35572,348.427489 L1063.26197,357.802489 L1021.66041,357.802489 L1002.61744,305.849364 L995.488534,305.849364 Z M1001.64088,276.845458 L1006.62135,276.845458 C1012.80627,276.845458 1017.72159,275.071387 1021.36744,271.523192 C1025.01329,267.974997 1026.83619,263.010854 1026.83619,256.630614 C1026.83619,252.594136 1025.71315,249.517994 1023.46705,247.402098 C1021.22094,245.286202 1017.94949,244.22827 1013.6526,244.22827 L1008.47682,244.22827 L1001.64088,276.845458 Z M1076.05494,357.802489 L1106.23072,215.029052 L1145.00025,215.029052 L1114.82447,357.802489 L1076.05494,357.802489 Z M1239.43385,313.954833 C1239.43385,328.40803 1234.64874,339.654662 1225.07838,347.695067 C1215.50802,355.735472 1202.1618,359.755614 1185.03932,359.755614 C1177.87782,359.755614 1171.10706,358.958096 1164.72682,357.363036 C1158.34657,355.767976 1152.84533,353.440525 1148.22291,350.380614 L1148.22291,316.200927 C1153.69169,319.651465 1159.9579,322.548571 1167.02174,324.892333 C1174.08557,327.236095 1180.48199,328.407958 1186.21119,328.407958 C1191.02892,328.407958 1194.67472,327.398853 1197.14869,325.380614 C1199.62266,323.362375 1200.85963,320.49782 1200.85963,316.786864 C1200.85963,315.029043 1200.46901,313.385179 1199.68775,311.855223 C1198.9065,310.325268 1197.79974,308.795335 1196.36744,307.26538 C1194.93514,305.735424 1191.09403,302.366317 1184.844,297.157958 C1177.22678,291.038136 1171.69298,284.788198 1168.24244,278.407958 C1164.7919,272.027718 1163.06666,265.02909 1163.06666,257.411864 C1163.06666,248.883176 1165.1988,241.217237 1169.46314,234.413817 C1173.72749,227.610398 1179.74956,222.337013 1187.52955,218.593505 C1195.30954,214.849996 1204.01713,212.97827 1213.6526,212.97827 C1229.21257,212.97827 1243.20983,216.461308 1255.64478,223.427489 L1242.46119,252.431395 C1231.32832,246.7022 1221.85576,243.837645 1214.04322,243.837645 C1209.87653,243.837645 1206.67019,244.749095 1204.42408,246.57202 C1202.17798,248.394946 1201.05494,251.06419 1201.05494,254.579833 C1201.05494,257.769953 1202.14542,260.748439 1204.32642,263.51538 C1206.50742,266.282321 1210.65777,269.976945 1216.7776,274.599364 C1224.45993,280.263455 1230.15648,286.220427 1233.86744,292.470458 C1237.5784,298.720489 1239.43385,305.881876 1239.43385,313.954833 Z M181.328378,465.849364 L170.293221,517.802489 L132.109628,517.802489 L162.285409,375.029052 L200.078378,375.029052 C216.48471,375.029052 229.049688,378.284227 237.77369,384.794677 C246.497692,391.305126 250.859628,401.103205 250.859628,414.189208 C250.859628,424.345509 248.548453,433.199587 243.926034,440.751708 C239.303615,448.303829 232.435194,454.06549 223.320565,458.036864 L245.195565,508.427489 L249.101815,517.802489 L207.500253,517.802489 L188.457284,465.849364 L181.328378,465.849364 Z M187.480721,436.845458 L192.46119,436.845458 C198.646117,436.845458 203.561432,435.071387 207.207284,431.523192 C210.853135,427.974997 212.676034,423.010854 212.676034,416.630614 C212.676034,412.594136 211.552998,409.517994 209.306893,407.402098 C207.060788,405.286202 203.789337,404.22827 199.49244,404.22827 L194.316659,404.22827 L187.480721,436.845458 Z M311.308846,465.849364 L300.27369,517.802489 L262.090096,517.802489 L292.265878,375.029052 L330.058846,375.029052 C346.465178,375.029052 359.030157,378.284227 367.754159,384.794677 C376.478161,391.305126 380.840096,401.103205 380.840096,414.189208 C380.840096,424.345509 378.528922,433.199587 373.906503,440.751708 C369.284084,448.303829 362.415663,454.06549 353.301034,458.036864 L375.176034,508.427489 L379.082284,517.802489 L337.480721,517.802489 L318.437753,465.849364 L311.308846,465.849364 Z M317.46119,436.845458 L322.441659,436.845458 C328.626586,436.845458 333.541901,435.071387 337.187753,431.523192 C340.833604,427.974997 342.656503,423.010854 342.656503,416.630614 C342.656503,412.594136 341.533467,409.517994 339.287362,407.402098 C337.041257,405.286202 333.769805,404.22827 329.472909,404.22827 L324.297128,404.22827 L317.46119,436.845458 Z M391.875253,517.802489 L422.051034,375.029052 L460.820565,375.029052 L430.644784,517.802489 L391.875253,517.802489 Z M555.254159,473.954833 C555.254159,488.40803 550.46905,499.654662 540.89869,507.695067 C531.32833,515.735472 517.982109,519.755614 500.859628,519.755614 C493.698133,519.755614 486.927368,518.958096 480.547128,517.363036 C474.166887,515.767976 468.66564,513.440525 464.043221,510.380614 L464.043221,476.200927 C469.511999,479.651465 475.778212,482.548571 482.842049,484.892333 C489.905887,487.236095 496.302307,488.407958 502.031503,488.407958 C506.849235,488.407958 510.495032,487.398853 512.969003,485.380614 C515.442973,483.362375 516.67994,480.49782 516.67994,476.786864 C516.67994,475.029043 516.289319,473.385179 515.508065,471.855223 C514.726811,470.325268 513.620051,468.795335 512.187753,467.26538 C510.755454,465.735424 506.914346,462.366317 500.664315,457.157958 C493.04709,451.038136 487.513291,444.788198 484.062753,438.407958 C480.612215,432.027718 478.886971,425.02909 478.886971,417.411864 C478.886971,408.883176 481.019111,401.217237 485.283456,394.413817 C489.5478,387.610398 495.569875,382.337013 503.349862,378.593505 C511.129849,374.849996 519.837444,372.97827 529.472909,372.97827 C545.032882,372.97827 559.030138,376.461308 571.465096,383.427489 L558.281503,412.431395 C547.148634,406.7022 537.676073,403.837645 529.863534,403.837645 C525.696846,403.837645 522.490498,404.749095 520.244393,406.57202 C517.998288,408.394946 516.875253,411.06419 516.875253,414.579833 C516.875253,417.769953 517.965736,420.748439 520.146737,423.51538 C522.327737,426.282321 526.478087,429.976945 532.597909,434.599364 C540.280239,440.263455 545.976797,446.220427 549.687753,452.470458 C553.398709,458.720489 555.254159,465.881876 555.254159,473.954833 Z M572.636971,517.802489 L602.812753,375.029052 L640.996346,375.029052 L617.46119,486.650145 L664.043221,486.650145 L657.402596,517.802489 L572.636971,517.802489 Z M814.433846,375.029052 L795.000253,466.044677 C791.159088,484.339039 783.834942,497.864294 773.027596,506.620848 C762.220251,515.377403 747.539408,519.755614 728.984628,519.755614 C720.260626,519.755614 712.562135,517.965267 705.888924,514.38452 C699.215714,510.803773 694.072536,505.790803 690.459237,499.345458 C686.845938,492.900113 685.039315,485.706175 685.039315,477.763427 C685.039315,473.596739 685.429936,469.397562 686.21119,465.16577 L705.644784,375.029052 L743.828378,375.029052 L724.785409,464.189208 C723.873946,468.616313 723.418221,472.359765 723.418221,475.419677 C723.418221,483.687947 727.356984,487.82202 735.234628,487.82202 C741.35445,487.82202 746.155834,485.722432 749.638924,481.523192 C753.122015,477.323952 755.774983,470.89498 757.597909,462.236083 L776.250253,375.029052 L814.433846,375.029052 Z M934.258065,517.802489 L891.484628,517.802489 L874.49244,461.357177 L865.019784,466.825927 L854.472909,517.802489 L816.289315,517.802489 L846.465096,375.029052 L884.64869,375.029052 L871.465096,435.966552 L875.176034,430.204833 C880.905229,420.89489 885.136958,414.547298 887.871346,411.161864 L916.875253,375.029052 L961.699471,375.029052 L907.890878,440.849364 L934.258065,517.802489 Z M1034.844,517.802489 L950.078378,517.802489 L980.254159,375.029052 L1065.01978,375.029052 L1058.67213,405.986083 L1012.0901,405.986083 L1007.50025,428.44702 L1050.85963,428.44702 L1043.82838,459.404052 L1000.469,459.404052 L994.902596,486.357177 L1041.48463,486.357177 L1034.844,517.802489 Z M1172.83228,517.802489 L1134.64869,517.802489 L1146.85572,459.599364 L1113.06666,459.599364 L1100.66432,517.802489 L1062.48072,517.802489 L1092.6565,375.029052 L1130.8401,375.029052 L1119.9026,427.958739 L1153.88697,427.958739 L1164.82447,375.029052 L1203.10572,375.029052 L1172.83228,517.802489 Z M1285.82057,491.044677 L1242.07057,491.044677 L1229.86353,517.802489 L1190.2151,517.802489 L1262.87135,375.029052 L1311.99244,375.029052 L1324.00416,517.802489 L1286.79713,517.802489 L1285.82057,491.044677 Z M1256.03541,460.575927 L1284.64869,460.575927 L1282.98853,419.169677 L1282.79322,410.771239 C1282.79322,405.888402 1282.92343,401.624122 1283.18385,397.97827 C1281.62134,403.577257 1279.63568,408.980848 1277.22682,414.189208 L1256.03541,460.575927 Z M150.176034,677.802489 L107.402596,677.802489 L90.4104088,621.357177 L80.9377526,626.825927 L70.3908776,677.802489 L32.2072838,677.802489 L62.3830651,535.029052 L100.566659,535.029052 L87.3830651,595.966552 L91.0940026,590.204833 C96.8231979,580.89489 101.054926,574.547298 103.789315,571.161864 L132.793221,535.029052 L177.61744,535.029052 L123.808846,600.849364 L150.176034,677.802489 Z M250.761971,677.802489 L165.996346,677.802489 L196.172128,535.029052 L280.937753,535.029052 L274.590096,565.986083 L228.008065,565.986083 L223.418221,588.44702 L266.777596,588.44702 L259.746346,619.404052 L216.386971,619.404052 L210.820565,646.357177 L257.402596,646.357177 L250.761971,677.802489 Z M388.750253,677.802489 L350.566659,677.802489 L362.77369,619.599364 L328.984628,619.599364 L316.582284,677.802489 L278.39869,677.802489 L308.574471,535.029052 L346.758065,535.029052 L335.820565,587.958739 L369.80494,587.958739 L380.74244,535.029052 L419.02369,535.029052 L388.750253,677.802489 Z M501.738534,651.044677 L457.988534,651.044677 L445.781503,677.802489 L406.133065,677.802489 L478.789315,535.029052 L527.910409,535.029052 L539.922128,677.802489 L502.715096,677.802489 L501.738534,651.044677 Z M471.953378,620.575927 L500.566659,620.575927 L498.906503,579.169677 L498.71119,570.771239 C498.71119,565.888402 498.841397,561.624122 499.101815,557.97827 C497.539307,563.577257 495.55365,568.980848 493.144784,574.189208 L471.953378,620.575927 Z M605.547128,625.849364 L594.511971,677.802489 L556.328378,677.802489 L586.504159,535.029052 L624.297128,535.029052 C640.70346,535.029052 653.268438,538.284227 661.99244,544.794677 C670.716442,551.305126 675.078378,561.103205 675.078378,574.189208 C675.078378,584.345509 672.767203,593.199587 668.144784,600.751708 C663.522365,608.303829 656.653944,614.06549 647.539315,618.036864 L669.414315,668.427489 L673.320565,677.802489 L631.719003,677.802489 L612.676034,625.849364 L605.547128,625.849364 Z M611.699471,596.845458 L616.67994,596.845458 C622.864867,596.845458 627.780182,595.071387 631.426034,591.523192 C635.071885,587.974997 636.894784,583.010854 636.894784,576.630614 C636.894784,572.594136 635.771748,569.517994 633.525643,567.402098 C631.279538,565.286202 628.008087,564.22827 623.71119,564.22827 L618.535409,564.22827 L611.699471,596.845458 Z M735.527596,625.849364 L724.49244,677.802489 L686.308846,677.802489 L716.484628,535.029052 L754.277596,535.029052 C770.683928,535.029052 783.248907,538.284227 791.972909,544.794677 C800.696911,551.305126 805.058846,561.103205 805.058846,574.189208 C805.058846,584.345509 802.747672,593.199587 798.125253,600.751708 C793.502834,608.303829 786.634413,614.06549 777.519784,618.036864 L799.394784,668.427489 L803.301034,677.802489 L761.699471,677.802489 L742.656503,625.849364 L735.527596,625.849364 Z M741.67994,596.845458 L746.660409,596.845458 C752.845336,596.845458 757.760651,595.071387 761.406503,591.523192 C765.052354,587.974997 766.875253,583.010854 766.875253,576.630614 C766.875253,572.594136 765.752217,569.517994 763.506112,567.402098 C761.260007,565.286202 757.988555,564.22827 753.691659,564.22827 L748.515878,564.22827 L741.67994,596.845458 Z M816.094003,677.802489 L846.269784,535.029052 L885.039315,535.029052 L854.863534,677.802489 L816.094003,677.802489 Z M979.472909,633.954833 C979.472909,648.40803 974.6878,659.654662 965.11744,667.695067 C955.54708,675.735472 942.200859,679.755614 925.078378,679.755614 C917.916883,679.755614 911.146118,678.958096 904.765878,677.363036 C898.385637,675.767976 892.88439,673.440525 888.261971,670.380614 L888.261971,636.200927 C893.730749,639.651465 899.996962,642.548571 907.060799,644.892333 C914.124637,647.236095 920.521057,648.407958 926.250253,648.407958 C931.067985,648.407958 934.713782,647.398853 937.187753,645.380614 C939.661723,643.362375 940.89869,640.49782 940.89869,636.786864 C940.89869,635.029043 940.508069,633.385179 939.726815,631.855223 C938.945561,630.325268 937.838801,628.795335 936.406503,627.26538 C934.974204,625.735424 931.133096,622.366317 924.883065,617.157958 C917.26584,611.038136 911.732041,604.788198 908.281503,598.407958 C904.830965,592.027718 903.105721,585.02909 903.105721,577.411864 C903.105721,568.883176 905.237861,561.217237 909.502206,554.413817 C913.76655,547.610398 919.788625,542.337013 927.568612,538.593505 C935.348599,534.849996 944.056194,532.97827 953.691659,532.97827 C969.251632,532.97827 983.248888,536.461308 995.683846,543.427489 L982.500253,572.431395 C971.367384,566.7022 961.894823,563.837645 954.082284,563.837645 C949.915596,563.837645 946.709248,564.749095 944.463143,566.57202 C942.217038,568.394946 941.094003,571.06419 941.094003,574.579833 C941.094003,577.769953 942.184486,580.748439 944.365487,583.51538 C946.546487,586.282321 950.696837,589.976945 956.816659,594.599364 C964.498989,600.263455 970.195547,606.220427 973.906503,612.470458 C977.617459,618.720489 979.472909,625.881876 979.472909,633.954833 Z M996.855721,677.802489 L1027.0315,535.029052 L1065.2151,535.029052 L1041.67994,646.650145 L1088.26197,646.650145 L1081.62135,677.802489 L996.855721,677.802489 Z M1238.6526,535.029052 L1219.219,626.044677 C1215.37784,644.339039 1208.05369,657.864294 1197.24635,666.620848 C1186.439,675.377403 1171.75816,679.755614 1153.20338,679.755614 C1144.47938,679.755614 1136.78088,677.965267 1130.10767,674.38452 C1123.43446,670.803773 1118.29129,665.790803 1114.67799,659.345458 C1111.06469,652.900113 1109.25807,645.706175 1109.25807,637.763427 C1109.25807,633.596739 1109.64869,629.397562 1110.42994,625.16577 L1129.86353,535.029052 L1168.04713,535.029052 L1149.00416,624.189208 C1148.0927,628.616313 1147.63697,632.359765 1147.63697,635.419677 C1147.63697,643.687947 1151.57573,647.82202 1159.45338,647.82202 C1165.5732,647.82202 1170.37458,645.722432 1173.85767,641.523192 C1177.34076,637.323952 1179.99373,630.89498 1181.81666,622.236083 L1200.469,535.029052 L1238.6526,535.029052 Z M568.24244,695.029052 L548.808846,786.044677 C544.967681,804.339039 537.643536,817.864294 526.83619,826.620848 C516.028844,835.377403 501.348002,839.755614 482.793221,839.755614 C474.069219,839.755614 466.370729,837.965267 459.697518,834.38452 C453.024308,830.803773 447.88113,825.790803 444.267831,819.345458 C440.654531,812.900113 438.847909,805.706175 438.847909,797.763427 C438.847909,793.596739 439.23853,789.397562 440.019784,785.16577 L459.453378,695.029052 L497.636971,695.029052 L478.594003,784.189208 C477.68254,788.616313 477.226815,792.359765 477.226815,795.419677 C477.226815,803.687947 481.165578,807.82202 489.043221,807.82202 C495.163044,807.82202 499.964428,805.722432 503.447518,801.523192 C506.930609,797.323952 509.583577,790.89498 511.406503,782.236083 L530.058846,695.029052 L568.24244,695.029052 Z M688.066659,837.802489 L645.293221,837.802489 L628.301034,781.357177 L618.828378,786.825927 L608.281503,837.802489 L570.097909,837.802489 L600.27369,695.029052 L638.457284,695.029052 L625.27369,755.966552 L628.984628,750.204833 C634.713823,740.89489 638.945551,734.547298 641.67994,731.161864 L670.683846,695.029052 L715.508065,695.029052 L661.699471,760.849364 L688.066659,837.802489 Z M788.652596,837.802489 L703.886971,837.802489 L734.062753,695.029052 L818.828378,695.029052 L812.480721,725.986083 L765.89869,725.986083 L761.308846,748.44702 L804.668221,748.44702 L797.636971,779.404052 L754.277596,779.404052 L748.71119,806.357177 L795.293221,806.357177 L788.652596,837.802489 Z M926.640878,837.802489 L888.457284,837.802489 L900.664315,779.599364 L866.875253,779.599364 L854.472909,837.802489 L816.289315,837.802489 L846.465096,695.029052 L884.64869,695.029052 L873.71119,747.958739 L907.695565,747.958739 L918.633065,695.029052 L956.914315,695.029052 L926.640878,837.802489 Z M1039.62916,811.044677 L995.879159,811.044677 L983.672128,837.802489 L944.02369,837.802489 L1016.67994,695.029052 L1065.80103,695.029052 L1077.81275,837.802489 L1040.60572,837.802489 L1039.62916,811.044677 Z M1009.844,780.575927 L1038.45728,780.575927 L1036.79713,739.169677 L1036.60182,730.771239 C1036.60182,725.888402 1036.73202,721.624122 1036.99244,717.97827 C1035.42993,723.577257 1033.44428,728.980848 1031.03541,734.189208 L1009.844,780.575927 Z M1143.43775,785.849364 L1132.4026,837.802489 L1094.219,837.802489 L1124.39478,695.029052 L1162.18775,695.029052 C1178.59408,695.029052 1191.15906,698.284227 1199.88307,704.794677 C1208.60707,711.305126 1212.969,721.103205 1212.969,734.189208 C1212.969,744.345509 1210.65783,753.199587 1206.03541,760.751708 C1201.41299,768.303829 1194.54457,774.06549 1185.42994,778.036864 L1207.30494,828.427489 L1211.21119,837.802489 L1169.60963,837.802489 L1150.56666,785.849364 L1143.43775,785.849364 Z" id="path-2"></path>
    </defs>
    <g id="Desktop" stroke="none" stroke-width="1" fill="none" fill-rule="evenodd">
        <g id="Group" transform="translate(-173.000000, -206.000000)">
            <rect id="Rectangle" fill="url(#linearGradient-1)" x="173" y="206" width="1024" height="500"></rect>
            <mask id="mask-3" fill="white">
                <use xlink:href="#path-2"></use>
            </mask>
            <use id="LUKEHARRISLUKEHARRIS" fill="#939393" style="mix-blend-mode: soft-light;" transform="translate(678.105721, 447.392333) rotate(-5.000000) translate(-678.105721, -447.392333) " xlink:href="#path-2"></use>
        </g>
    </g>
</svg>